# xmcd CD database file
#
# Track frame offsets:
#	150
#	18474
#	36577
#	52531
#	66676
#	81613
#	99398
#	117734
#	135523
#	149685
#	169276
#	185298
#
# Disc length: 2698 seconds
#
# Revision: 0
# Processed by: cddbd v1.5.1PL2 Copyright (c) Steve Scherf et al.
# Submitted via: CDex 1.51
#
DISCID=b60a880c
DTITLE=Varios - Jazz Cool Versions
DYEAR=2006
DGENRE=Jazz
TTITLE0=Hard Woman (Mick Jagger)
TTITLE1=Candy (Iggy Pop)
TTITLE2=Sacrifice (Elton John - Bernie Taupin)
TTITLE3=Fragile (Sitng)
TTITLE4=Woman (John Lennon)
TTITLE5=In the Air Tonight (Phil Collins)
TTITLE6=With or Without You (U2)
TTITLE7=Pipes of Peace (Paul McCartney)
TTITLE8=This is Not America (David Bowie - Pat Metheny)
TTITLE9=Lately (Stevie Wonder)
TTITLE10=In Your Eyes (Peter Gabriel)
TTITLE11=Brothers in Arms (Mark Knopfler)
EXTD=YEAR: 2006
EXTT0=
EXTT1=
EXTT2=
EXTT3=
EXTT4=
EXTT5=
EXTT6=
EXTT7=
EXTT8=
EXTT9=
EXTT10=
EXTT11=
PLAYORDER=
